<svg width="24" height="24" viewBox="2.6665 2.66602 26.6667 26.6667" fill="none" xmlns="http://www.w3.org/2000/svg">
<g clip-path="url(#clip0_3287_1543)">
<path d="M2.6665 15.9993C2.6665 23.3633 8.63584 29.3327 15.9998 29.3327C23.3638 29.3327 29.3332 23.3633 29.3332 15.9993C29.3332 8.63535 23.3638 2.66602 15.9998 2.66602C8.63584 2.66602 2.6665 8.63535 2.6665 15.9993Z" fill="#9397A3"/>
<path d="M21.5645 11.008C20.5215 10.536 19.4137 10.192 18.2575 10C18.1119 10.248 17.9502 10.584 17.837 10.848C16.6072 10.672 15.3862 10.672 14.1734 10.848C14.0602 10.584 13.8904 10.248 13.7529 10C12.5886 10.192 11.4808 10.536 10.4451 11.008C8.35088 14.064 7.78488 17.048 8.06788 19.992C9.45862 20.992 10.8009 21.6 12.1196 22C12.4431 21.568 12.7341 21.104 12.9848 20.616C12.5077 20.44 12.0549 20.224 11.6183 19.968C11.7315 19.888 11.8447 19.8 11.9498 19.712C14.5858 20.904 17.4408 20.904 20.0444 19.712C20.1576 19.8 20.2627 19.888 20.3759 19.968C19.9393 20.224 19.4865 20.44 19.0094 20.616C19.2601 21.104 19.5512 21.568 19.8746 22C21.1925 21.6 22.5429 20.992 23.9263 19.992C24.274 16.584 23.3757 13.624 21.5645 11.008ZM13.3486 18.176C12.5562 18.176 11.9094 17.464 11.9094 16.592C11.9094 15.72 12.5401 15.008 13.3486 15.008C14.1491 15.008 14.804 15.72 14.7879 16.592C14.7879 17.464 14.1491 18.176 13.3486 18.176ZM18.6618 18.176C17.8693 18.176 17.2217 17.464 17.2217 16.592C17.2217 15.72 17.8532 15.008 18.6618 15.008C19.4622 15.008 20.1172 15.72 20.101 16.592C20.101 17.464 19.4703 18.176 18.6618 18.176Z" fill="white"/>
</g>
<defs>
<clipPath id="clip0_3287_1543">
<rect width="26.6667" height="26.6667" fill="white" transform="translate(2.6665 2.66602)"/>
</clipPath>
</defs>
</svg>
