<svg width="24" height="24" viewBox="2.6665 2.66602 26.6667 26.6667" fill="none" xmlns="http://www.w3.org/2000/svg">
<g clip-path="url(#clip0_3331_1579)">
<path d="M15.9998 29.3327C23.3636 29.3327 29.3332 23.3631 29.3332 15.9993C29.3332 8.63555 23.3636 2.66602 15.9998 2.66602C8.63604 2.66602 2.6665 8.63555 2.6665 15.9993C2.6665 23.3631 8.63604 29.3327 15.9998 29.3327Z" fill="#FF4500"/>
<path d="M24.8934 15.9998C24.8797 15.6245 24.7577 15.2612 24.5422 14.9537C24.3266 14.6461 24.0267 14.4075 23.6786 14.2666C23.3305 14.1256 22.949 14.0884 22.5803 14.1594C22.2115 14.2303 21.8711 14.4064 21.6001 14.6665C20.0833 13.6355 18.3004 13.0658 16.4668 13.0265L17.3334 8.8665L20.1868 9.4665C20.2207 9.78181 20.3659 10.0747 20.5963 10.2926C20.8267 10.5105 21.1272 10.6392 21.444 10.6555C21.7607 10.6718 22.0728 10.5746 22.3244 10.3815C22.5759 10.1884 22.7504 9.91196 22.8165 9.6018C22.8826 9.29164 22.836 8.96807 22.685 8.68918C22.5341 8.41028 22.2886 8.19433 21.9928 8.08008C21.697 7.96584 21.3701 7.96077 21.0709 8.06581C20.7716 8.17084 20.5196 8.37909 20.3601 8.65317L17.0934 7.99984C17.04 7.98811 16.9848 7.98711 16.931 7.99689C16.8772 8.00667 16.8258 8.02703 16.7799 8.0568C16.7341 8.08656 16.6945 8.12514 16.6637 8.17029C16.6328 8.21544 16.6112 8.26627 16.6001 8.31984L15.6134 12.9465C13.7573 12.9745 11.9498 13.5445 10.4134 14.5865C10.2079 14.3931 9.96276 14.2467 9.69502 14.1575C9.42727 14.0682 9.14332 14.0383 8.86285 14.0697C8.58238 14.1011 8.31209 14.1931 8.07071 14.3394C7.82934 14.4856 7.62265 14.6826 7.46497 14.9167C7.30729 15.1507 7.20239 15.4163 7.15755 15.6949C7.1127 15.9736 7.12898 16.2586 7.20525 16.5304C7.28152 16.8021 7.41596 17.054 7.59926 17.2686C7.78256 17.4832 8.01032 17.6553 8.26678 17.7732C8.25177 17.9684 8.25177 18.1646 8.26678 18.3598C8.26678 21.3465 11.7468 23.7732 16.0401 23.7732C20.3334 23.7732 23.8134 21.3465 23.8134 18.3598C23.8285 18.1646 23.8285 17.9684 23.8134 17.7732C24.1425 17.6096 24.4185 17.3563 24.6096 17.0425C24.8007 16.7287 24.8991 16.3672 24.8934 15.9998ZM11.5601 17.3332C11.5601 17.0695 11.6383 16.8117 11.7848 16.5924C11.9313 16.3731 12.1396 16.2022 12.3832 16.1013C12.6268 16.0004 12.8949 15.974 13.1536 16.0255C13.4122 16.0769 13.6498 16.2039 13.8363 16.3904C14.0227 16.5768 14.1497 16.8144 14.2012 17.073C14.2526 17.3317 14.2262 17.5998 14.1253 17.8434C14.0244 18.087 13.8535 18.2953 13.6342 18.4418C13.4149 18.5883 13.1572 18.6665 12.8934 18.6665C12.5398 18.6665 12.2007 18.526 11.9506 18.276C11.7006 18.0259 11.5601 17.6868 11.5601 17.3332ZM19.3068 20.9998C18.3608 21.7127 17.1969 22.0755 16.0134 22.0265C14.83 22.0755 13.6661 21.7127 12.7201 20.9998C12.6634 20.9308 12.6344 20.8431 12.6388 20.7538C12.6432 20.6645 12.6806 20.5801 12.7438 20.5169C12.807 20.4537 12.8915 20.4163 12.9807 20.4119C13.07 20.4075 13.1577 20.4365 13.2268 20.4932C14.0284 21.0812 15.0069 21.3775 16.0001 21.3332C16.9945 21.3872 17.9776 21.1003 18.7868 20.5198C18.8218 20.4857 18.8632 20.4588 18.9086 20.4406C18.954 20.4225 19.0026 20.4135 19.0515 20.4141C19.1004 20.4147 19.1487 20.425 19.1936 20.4442C19.2386 20.4635 19.2793 20.4915 19.3134 20.5265C19.3476 20.5615 19.3745 20.6029 19.3926 20.6483C19.4108 20.6938 19.4198 20.7423 19.4192 20.7912C19.4186 20.8401 19.4083 20.8884 19.389 20.9334C19.3697 20.9783 19.3418 21.019 19.3068 21.0532V20.9998ZM19.0668 18.7198C18.8031 18.7198 18.5453 18.6416 18.326 18.4951C18.1068 18.3486 17.9359 18.1404 17.8349 17.8967C17.734 17.6531 17.7076 17.385 17.7591 17.1264C17.8105 16.8677 17.9375 16.6302 18.124 16.4437C18.3104 16.2572 18.548 16.1302 18.8067 16.0788C19.0653 16.0273 19.3334 16.0537 19.577 16.1547C19.8207 16.2556 20.0289 16.4265 20.1754 16.6457C20.3219 16.865 20.4001 17.1228 20.4001 17.3865C20.4074 17.5672 20.3778 17.7474 20.3132 17.9163C20.2486 18.0852 20.1503 18.2391 20.0244 18.3688C19.8984 18.4985 19.7474 18.6013 19.5805 18.6708C19.4135 18.7403 19.2342 18.7751 19.0534 18.7732L19.0668 18.7198Z" fill="white"/>
</g>
<defs>
<clipPath id="clip0_3331_1579">
<rect width="26.6667" height="26.6667" fill="white" transform="translate(2.6665 2.66602)"/>
</clipPath>
</defs>
</svg>
