<svg width="24" height="24" viewBox="2.6665 2.66602 26.6667 26.6667" fill="none" xmlns="http://www.w3.org/2000/svg">
<path d="M2.6665 15.9993C2.6665 23.3633 8.63584 29.3327 15.9998 29.3327C23.3638 29.3327 29.3332 23.3633 29.3332 15.9993C29.3332 8.63535 23.3638 2.66602 15.9998 2.66602C8.63584 2.66602 2.6665 8.63535 2.6665 15.9993Z" fill="#3DB9FF"/>
<path d="M11.8706 17.5513L11.8532 17.5607L8.52389 16.522C7.80389 16.302 7.79855 15.806 8.68389 15.4513L21.6612 10.438C22.4146 10.1287 22.8412 10.518 22.5972 11.4887L20.3879 21.918C20.2332 22.6593 19.7866 22.8367 19.1652 22.494L15.7652 19.9767L14.1812 21.5073C14.0172 21.6647 13.8852 21.7993 13.6346 21.8327C13.3852 21.8673 13.1799 21.7927 13.0306 21.378L11.8706 17.5513Z" fill="white"/>
</svg>
